<svg width="13" height="14" viewBox="0 0 13 14" fill="none" xmlns="http://www.w3.org/2000/svg">
<path d="M1.9727 0.832031C1.05472 0.832031 0.307313 1.58035 0.306641 2.50035C0.306641 3.42035 1.05405 4.16881 1.9727 4.16881C2.89102 4.16881 3.63804 3.42035 3.63804 2.50035C3.63804 1.58044 2.89097 0.832031 1.9727 0.832031ZM3.2231 4.83915H0.722112C0.693813 4.83915 0.66579 4.84473 0.639646 4.85558C0.613501 4.86642 0.589746 4.88232 0.569738 4.90236C0.54973 4.9224 0.53386 4.94619 0.523034 4.97238C0.512209 4.99856 0.50664 5.02662 0.506647 5.05496V13.1163C0.506647 13.1735 0.529348 13.2284 0.569755 13.2688C0.610163 13.3093 0.664967 13.332 0.722112 13.332H3.22305C3.2802 13.332 3.335 13.3093 3.37541 13.2688C3.41583 13.2284 3.43854 13.1735 3.43857 13.1163V5.05496C3.43859 5.02662 3.43303 4.99855 3.4222 4.97236C3.41138 4.94617 3.39551 4.92238 3.3755 4.90233C3.35549 4.88229 3.33173 4.86639 3.30558 4.85555C3.27943 4.84471 3.2514 4.83913 3.2231 4.83915ZM9.61677 4.74424C8.70152 4.74424 7.89722 5.02333 7.40643 5.47843V5.05496C7.40643 4.93573 7.30993 4.83915 7.19091 4.83915H4.79185C4.76355 4.83915 4.73552 4.84473 4.70937 4.85557C4.68323 4.86642 4.65947 4.88232 4.63946 4.90236C4.61944 4.9224 4.60357 4.94619 4.59274 4.97237C4.58191 4.99856 4.57633 5.02662 4.57633 5.05496V13.1163C4.57633 13.1446 4.58191 13.1727 4.59274 13.1988C4.60357 13.225 4.61945 13.2488 4.63946 13.2688C4.65947 13.2889 4.68323 13.3048 4.70938 13.3156C4.73553 13.3265 4.76355 13.332 4.79185 13.332H7.29044C7.34758 13.332 7.40238 13.3093 7.4428 13.2688C7.48321 13.2284 7.50592 13.1735 7.50595 13.1163V9.12794C7.50595 7.98362 7.71613 7.27434 8.76509 7.27434C9.79853 7.27559 9.87587 8.03617 9.87587 9.19631V13.1163C9.87588 13.1446 9.88146 13.1727 9.8923 13.1988C9.90313 13.225 9.91901 13.2488 9.93903 13.2689C9.95905 13.2889 9.98281 13.3048 10.009 13.3156C10.0351 13.3265 10.0631 13.332 10.0914 13.332H12.5912C12.6483 13.332 12.7031 13.3093 12.7435 13.2688C12.7839 13.2284 12.8066 13.1735 12.8066 13.1163V8.69429C12.8066 6.8552 12.444 4.74424 9.61677 4.74424Z" fill="white"/>
</svg>
