<svg width="18" height="14" viewBox="0 0 18 14" fill="none" xmlns="http://www.w3.org/2000/svg">
<path d="M17.6126 1.72518L12.2206 7.08244L17.6126 12.4397C17.71 12.236 17.7692 12.0107 17.7692 11.7702V2.39463C17.7692 2.1541 17.71 1.92891 17.6126 1.72518ZM16.2066 0.832031H1.55284C1.3123 0.832031 1.08711 0.891167 0.883383 0.988639L7.77491 7.84544C8.38425 8.45479 9.37515 8.45479 9.9845 7.84544L16.876 0.988639C16.6723 0.891167 16.4471 0.832031 16.2066 0.832031ZM0.146842 1.72518C0.0493702 1.92891 -0.00976562 2.1541 -0.00976562 2.39463V11.7702C-0.00976562 12.0108 0.0493702 12.236 0.146842 12.4397L5.53883 7.08244L0.146842 1.72518Z" fill="white"/>
<path d="M11.4815 7.81641L10.7185 8.57941C9.70321 9.59472 8.05112 9.59472 7.03581 8.57941L6.27284 7.81641L0.880859 13.1737C1.08459 13.2711 1.30978 13.3303 1.55031 13.3303H16.204C16.4446 13.3303 16.6698 13.2711 16.8735 13.1737L11.4815 7.81641Z" fill="white"/>
</svg>
